<svg width="100" height="100" viewBox="0 0 100 100" fill="none" xmlns="http://www.w3.org/2000/svg">
<rect width="100" height="100" rx="26" fill="white"/>
<path d="M26.5195 32.6138L19.6152 39.4894C16.6596 42.4326 16.6506 47.2019 19.5951 50.1562L32.1091 62.7117C42.1524 72.7884 58.5067 72.8189 68.5878 62.7798L80.7221 50.696C83.6856 47.7449 83.6856 42.9603 80.7221 40.0092L73.0809 32.3998C70.0117 29.3433 65.0354 29.3433 61.9661 32.3998L49.5011 44.8128L37.2511 32.6138C34.2876 29.6627 29.4829 29.6627 26.5195 32.6138Z" fill="#2C34FF"/>
<path d="M80.3405 49.0968C66.9302 56.0962 54.3809 49.4349 49.502 44.8133L62.4097 31.8634C65.2936 28.9701 70 28.9956 72.8521 31.92L81.2406 40.521C83.7787 43.1235 83.5672 47.4126 80.3405 49.0968Z" fill="#0015D4"/>
</svg>
